<svg width="20" height="20" viewBox="0 0 20 20" fill="none" xmlns="http://www.w3.org/2000/svg">
<path d="M19.0388 12.332L17.3747 11.3711C17.5427 10.4648 17.5427 9.53516 17.3747 8.62891L19.0388 7.66797C19.2302 7.5586 19.3162 7.33204 19.2537 7.1211C18.8201 5.73047 18.0818 4.47266 17.1169 3.42579C16.9685 3.26563 16.7263 3.22657 16.5388 3.33594L14.8747 4.29688C14.1755 3.69532 13.3708 3.23047 12.4997 2.92579V1.00782C12.4997 0.789068 12.3474 0.597662 12.1326 0.550787C10.699 0.230475 9.23022 0.2461 7.86694 0.550787C7.65209 0.597662 7.49975 0.789068 7.49975 1.00782V2.92969C6.63256 3.23829 5.82788 3.70313 5.12475 4.30079L3.46459 3.33985C3.27319 3.23047 3.03491 3.26563 2.88647 3.42969C1.92163 4.47266 1.18334 5.73047 0.749751 7.125C0.683345 7.33594 0.773188 7.5625 0.964594 7.67188L2.62866 8.63282C2.46069 9.53907 2.46069 10.4688 2.62866 11.375L0.964594 12.3359C0.773188 12.4453 0.687251 12.6719 0.749751 12.8828C1.18334 14.2734 1.92163 15.5313 2.88647 16.5781C3.03491 16.7383 3.27709 16.7773 3.46459 16.668L5.12866 15.707C5.82788 16.3086 6.63256 16.7734 7.50366 17.0781V19C7.50366 19.2188 7.656 19.4102 7.87084 19.457C9.30444 19.7773 10.7732 19.7617 12.1365 19.457C12.3513 19.4102 12.5037 19.2188 12.5037 19V17.0781C13.3708 16.7695 14.1755 16.3047 14.8787 15.707L16.5427 16.668C16.7341 16.7773 16.9724 16.7422 17.1208 16.5781C18.0857 15.5352 18.824 14.2773 19.2576 12.8828C19.3162 12.668 19.2302 12.4414 19.0388 12.332V12.332ZM9.99975 13.125C8.27709 13.125 6.87475 11.7227 6.87475 10C6.87475 8.27735 8.27709 6.875 9.99975 6.875C11.7224 6.875 13.1247 8.27735 13.1247 10C13.1247 11.7227 11.7224 13.125 9.99975 13.125Z" fill="black"/>
</svg>
