<svg width="20" height="18" viewBox="0 0 20 18" fill="none" xmlns="http://www.w3.org/2000/svg">
<g clip-path="url(#clip0_107_89)">
<path d="M9.99998 5.00001C9.63197 5.00576 9.26668 5.06422 8.91526 5.17362C9.07782 5.45949 9.16437 5.78227 9.16665 6.11112C9.16665 6.36647 9.11635 6.61931 9.01864 6.85522C8.92092 7.09114 8.77769 7.30549 8.59713 7.48605C8.41657 7.66661 8.20222 7.80983 7.96631 7.90755C7.7304 8.00527 7.47755 8.05556 7.2222 8.05556C6.89335 8.05328 6.57058 7.96673 6.2847 7.80417C6.05916 8.58639 6.08545 9.41975 6.35984 10.1862C6.63424 10.9527 7.14283 11.6133 7.81358 12.0747C8.48433 12.536 9.28323 12.7746 10.0971 12.7567C10.911 12.7388 11.6986 12.4652 12.3484 11.9748C12.9982 11.4843 13.4772 10.8019 13.7176 10.0241C13.9579 9.24631 13.9475 8.4126 13.6877 7.64107C13.4279 6.86954 12.932 6.19931 12.2701 5.7253C11.6083 5.2513 10.8141 4.99755 9.99998 5.00001ZM19.8791 8.38195C17.9962 4.70799 14.2684 2.22223 9.99998 2.22223C5.73158 2.22223 2.00276 4.70973 0.120814 8.3823C0.0413845 8.53942 0 8.71301 0 8.88907C0 9.06513 0.0413845 9.23872 0.120814 9.39584C2.0038 13.0698 5.73158 15.5556 9.99998 15.5556C14.2684 15.5556 17.9972 13.0681 19.8791 9.39549C19.9586 9.23837 20 9.06478 20 8.88872C20 8.71266 19.9586 8.53907 19.8791 8.38195ZM9.99998 13.8889C6.57463 13.8889 3.43436 11.9792 1.73852 8.8889C3.43436 5.79862 6.57429 3.8889 9.99998 3.8889C13.4257 3.8889 16.5656 5.79862 18.2614 8.8889C16.566 11.9792 13.4257 13.8889 9.99998 13.8889Z" fill="black"/>
</g>
<defs>
<clipPath id="clip0_107_89">
<rect width="20" height="17.7778" fill="white"/>
</clipPath>
</defs>
</svg>
